<svg id="Layer_1" data-name="Layer 1" xmlns="http://www.w3.org/2000/svg" viewBox="0 0 119 119"><defs><style>.cls-1{fill:#00acee;}</style></defs><title>hiw-1</title><g id="Accounting_Coach-Coach-Computer-Online-Money" data-name="Accounting Coach-Coach-Computer-Online-Money"><path class="cls-1" d="M109.08,16.85H62.27A33.69,33.69,0,1,0,15.85,63.27v23a9.94,9.94,0,0,0,9.92,9.92H51.29l-1.48,11.9h-.12a6.16,6.16,0,0,0-6.06,5.51A6,6,0,0,0,49.57,120H85.15a6.17,6.17,0,0,0,6.06-5.51,6,6,0,0,0-5.94-6.39H85L83.55,96.2h25.53A9.94,9.94,0,0,0,119,86.28V26.77A9.93,9.93,0,0,0,109.08,16.85ZM3.94,34.81A29.76,29.76,0,1,1,33.7,64.56,29.75,29.75,0,0,1,3.94,34.81ZM33.7,68.43A33.65,33.65,0,0,0,64.4,20.82h44.68a6,6,0,0,1,6,5.95V76.36H19.82v-11A33.58,33.58,0,0,0,33.7,68.43ZM85.21,116H49.63a2,2,0,0,1-2-1.69,2,2,0,0,1,2-2.27h35.7a2,2,0,0,1,2,2.27A2,2,0,0,1,85.21,116ZM81,108.1H53.8l1.48-11.9H79.55Zm28-15.87H25.77a6,6,0,0,1-5.95-6v-6H115v6A6,6,0,0,1,109.08,92.23Z" transform="translate(0 -1)"/><path class="cls-1" d="M103.13,84.29h4v4h-4Z" transform="translate(0 -1)"/><path class="cls-1" d="M39.65,12.88m-17.85,0" transform="translate(0 -1)"/><path class="cls-1" d="M95.2,42.64h11.9v4H95.2Z" transform="translate(0 -1)"/><path class="cls-1" d="M95.2,34.7h4v4h-4Z" transform="translate(0 -1)"/><path class="cls-1" d="M103.13,34.7h4v4h-4Z" transform="translate(0 -1)"/><path class="cls-1" d="M75.36,52.56H107.1v4H75.36Z" transform="translate(0 -1)"/><path class="cls-1" d="M75.36,60.49H107.1v4H75.36Z" transform="translate(0 -1)"/><path class="cls-1" d="M75.36,68.43H107.1v4H75.36Z" transform="translate(0 -1)"/></g><path class="cls-1" d="M32.32,2.85a32.08,32.08,0,0,0,0,64.15c1,0,1.93,0,2.89-.13s1.77-.2,2.65-.35l.34-.06A32.08,32.08,0,0,0,32.32,2.85ZM30,65H29c-.83-.07-.18.14-1,0-.05,0-.95,0-1,0-.8-.14-2-1.81-2.82-2L24,62.94c-.76-.21-1.51-.44-2.26-.7l-.23-.08c-.73-.27-1.44-.56-2.15-.88l-.26-.12c-.69-.31-1.37-.67-2-1L16.77,60q-1-.57-1.92-1.2l-.28-.2c-.62-.43-1.22-.88-1.8-1.36l-.17-.14V48.2A11.67,11.67,0,0,1,24.34,36.64H39.28A11.67,11.67,0,0,1,51,48.2v9.64l.42.12c-.6.5-1.21,1-1.84,1.42l-.26.17c-.63.44-1.28.85-1.95,1.24l-.25.15c-.68.38-1.37.75-2.07,1.07l-.24.11c-.71.33-1.44.63-2.17.9l-.22.08c-.74.27-1.5.51-2.27.72l-.19,0c-.78.21-1.57.39-2.37.53Zm24.21-9v-7a14,14,0,0,0-14-13.9H25.05a14,14,0,0,0-14,13.9v7C-2.68,42.15-.09,18.51,18.62,8.4a29.62,29.62,0,0,1,28,0C65.3,18.51,67.9,42.15,54.21,56Z" transform="translate(0 -1)"/><path class="cls-1" d="M32.32,11.41A10.69,10.69,0,1,0,43,22.1,10.69,10.69,0,0,0,32.32,11.41Zm0,19.24a8.56,8.56,0,1,1,8.56-8.55A8.55,8.55,0,0,1,32.32,30.65Z" transform="translate(0 -1)"/></svg>