<svg id="Layer_1" data-name="Layer 1" xmlns="http://www.w3.org/2000/svg" viewBox="0 0 120 115.5"><defs><style>.cls-1{fill:#00acee;}</style></defs><title>hiw-3</title><path class="cls-1" d="M114.36,18H87.89a32.84,32.84,0,0,0-55.78,0H5.63A5.63,5.63,0,0,0,0,23.63V93.37A5.63,5.63,0,0,0,5.63,99H46v8H32.75A1.75,1.75,0,0,0,31,108.75V114H28.88a2.46,2.46,0,0,0-1.76,2.13A2,2,0,0,0,28.88,118h62a2,2,0,0,0,1.75-1.87A2.45,2.45,0,0,0,90.88,114H89v-5.25A1.76,1.76,0,0,0,87.25,107H73V99h41.37A5.63,5.63,0,0,0,120,93.37V23.63A5.64,5.64,0,0,0,114.36,18ZM89.07,33h-12a58.74,58.74,0,0,0-1.51-12h10.1A29,29,0,0,1,89.07,33ZM75.59,49A58.74,58.74,0,0,0,77.1,37h12a29,29,0,0,1-3.38,12Zm7.89,3A29.37,29.37,0,0,1,69.19,62.47,31.24,31.24,0,0,0,74.62,52Zm0-34H74.62A31.24,31.24,0,0,0,69.19,7.53,29.41,29.41,0,0,1,83.48,18ZM62,6.26c3.74,1.07,7.07,5.48,9.26,11.74H62ZM62,21H72.33A54.93,54.93,0,0,1,74,33H62Zm0,16H74a55,55,0,0,1-1.64,12H62Zm0,15h9.26C69.07,58.26,65.74,62.67,62,63.74Zm25.72-.27a2,2,0,0,0,.22-.37A32.34,32.34,0,0,0,92.17,37H110V74H9V37H26.83a32.34,32.34,0,0,0,4.23,14.36,2,2,0,0,0,.22.37,32.76,32.76,0,0,0,56.44,0Zm4-24.73H110v6H92.67A32,32,0,0,0,91.77,27ZM9,33V27H27.23a31.24,31.24,0,0,0-.89,6Zm49,4V49H47.67A55,55,0,0,1,46,37ZM46,33a54.93,54.93,0,0,1,1.64-12H58V33ZM58,52V63.74c-3.74-1.07-7.07-5.48-9.26-11.74ZM50.57,62.47A29.37,29.37,0,0,1,36.28,52h8.86A31.06,31.06,0,0,0,50.57,62.47ZM34.07,49a29,29,0,0,1-3.39-12h12a58.72,58.72,0,0,0,1.52,12ZM58,6.26V18H48.74C50.93,11.74,54.26,7.33,58,6.26ZM50.57,7.53A31.06,31.06,0,0,0,45.14,18H36.28A29.37,29.37,0,0,1,50.57,7.53ZM34.07,21h10.1a58,58,0,0,0-1.52,12h-12A29,29,0,0,1,34.07,21ZM3,23.12A2.12,2.12,0,0,1,5.12,21h25l-1,2H7.75A1.76,1.76,0,0,0,6,24.75v50.5A1.76,1.76,0,0,0,7.75,77h104.5A1.76,1.76,0,0,0,114,75.25V25.07s-.84-1.76-1.81-2.07H90.57c-.3-.47-1-2-1-2h24.28A2.12,2.12,0,0,1,116,23.12V79H3ZM85,110v4H34v-4H85ZM50,99H70v8H50Zm66-6.12A2.12,2.12,0,0,1,113.88,95H5.12A2.12,2.12,0,0,1,3,92.88V83H116Z" transform="translate(0 -2.5)"/><path class="cls-1" d="M59.88,93.66A4.66,4.66,0,1,0,55.22,89,4.66,4.66,0,0,0,59.88,93.66Zm0-5.81a1.15,1.15,0,0,1,0,2.3,1.15,1.15,0,1,1,0-2.3Z" transform="translate(0 -2.5)"/><path class="cls-1" d="M17.25,28H13.38a2,2,0,0,0-1.76,1.91A2.38,2.38,0,0,0,13.38,32h3.87A2.38,2.38,0,0,0,19,29.91,2,2,0,0,0,17.25,28Z" transform="translate(0 -2.5)"/></svg>