<svg id="Layer_1" data-name="Layer 1" xmlns="http://www.w3.org/2000/svg" viewBox="0 0 120 120"><defs><style>.cls-1{fill:#00acee;}</style></defs><title>hiw-2</title><path class="cls-1" d="M96.5,35a2.5,2.5,0,0,0,3.5-2.16V7a7,7,0,0,0-7-7H7A7,7,0,0,0,0,7V113a7,7,0,0,0,7,7H97.32a2.68,2.68,0,0,0,2.68-2.68V95a.93.93,0,0,0-.29-.69C97.56,92.35,95,93.74,95,95.7v18A2.34,2.34,0,0,1,92.66,116H7.34A2.34,2.34,0,0,1,5,113.66V7.34A2.34,2.34,0,0,1,7.34,5H92.66A2.34,2.34,0,0,1,95,7.34V32.71A2.4,2.4,0,0,0,96.5,35Z"/><path class="cls-1" d="M49.69,12.66A21.55,21.55,0,0,0,34.9,49.89a1.9,1.9,0,0,0,.25.24,21.53,21.53,0,0,0,29.08,0,2.83,2.83,0,0,0,.25-.24A21.55,21.55,0,0,0,49.69,12.66Zm0,38.44A16.8,16.8,0,0,1,39.5,47.66a11.71,11.71,0,0,1,20.38,0A16.8,16.8,0,0,1,49.69,51.1ZM46,33.33V31.61a3.81,3.81,0,0,1,2.17-3.49A4,4,0,0,1,54,31.71v1.72a3.81,3.81,0,0,1-2.17,3.49A4,4,0,0,1,46,33.33Zm17.18,11a16.35,16.35,0,0,0-7-5.83A8.42,8.42,0,0,0,58,33.3V32a8.61,8.61,0,0,0-6.49-8.46A8.52,8.52,0,0,0,41,31.77V33.3a8.42,8.42,0,0,0,1.78,5.19,16.35,16.35,0,0,0-7,5.83A17,17,0,0,1,33,30,16.76,16.76,0,0,1,45.44,17.72a17,17,0,0,1,17.74,26.6Z"/><path class="cls-1" d="M62.77,103H49.25A2.44,2.44,0,0,0,47,104.45,2.52,2.52,0,0,0,49.27,108H62.78a2.44,2.44,0,0,0,2.27-1.45A2.51,2.51,0,0,0,62.77,103Z"/><path class="cls-1" d="M63.45,89H27.94a2.44,2.44,0,0,0-2.27,1.45A2.51,2.51,0,0,0,28,94H63.47a2.44,2.44,0,0,0,2.27-1.45A2.52,2.52,0,0,0,63.45,89Z"/><path class="cls-1" d="M63.45,76H27.94a2.44,2.44,0,0,0-2.27,1.45A2.51,2.51,0,0,0,28,81H63.47a2.44,2.44,0,0,0,2.27-1.45A2.52,2.52,0,0,0,63.45,76Z"/><path class="cls-1" d="M20.71,64a2.34,2.34,0,0,0-3.32,0,2.35,2.35,0,0,0,0,3.31A2.34,2.34,0,1,0,20.71,64Z"/><path class="cls-1" d="M20.71,77.1a2.34,2.34,0,0,0-4,1.65,2.39,2.39,0,0,0,.68,1.66,2.34,2.34,0,1,0,3.32-3.31Z"/><path class="cls-1" d="M20.71,90.22a2.34,2.34,0,0,0-3.32,0,2.35,2.35,0,0,0,0,3.31,2.34,2.34,0,1,0,3.32-3.31Z"/><path class="cls-1" d="M63.45,63H27.94a2.44,2.44,0,0,0-2.27,1.45A2.51,2.51,0,0,0,28,68H63.47a2.44,2.44,0,0,0,2.27-1.45A2.52,2.52,0,0,0,63.45,63Z"/><path class="cls-1" d="M115.08,30.54a9.85,9.85,0,0,0-13.45,3.61L72.14,85.23a2.27,2.27,0,0,0-.3.92l-2.08,18.59a2.36,2.36,0,0,0,2.33,2.61,2.36,2.36,0,0,0,1.39-.46l15.07-11.1a2.29,2.29,0,0,0,.64-.71L118.68,44A9.85,9.85,0,0,0,115.08,30.54ZM75,99.94l1.08-9.71,6.78,3.91ZM86.3,90.7l-8.93-5.15,23.67-41L110,49.71Zm28.32-49.05-2.31,4-8.93-5.16,2.31-4a5.16,5.16,0,1,1,8.93,5.16Z"/></svg>