<svg id="Layer_1" data-name="Layer 1" xmlns="http://www.w3.org/2000/svg" viewBox="0 0 120 98.83"><defs><style>.cls-1{fill:#00acee;}</style></defs><title>hiw-4</title><path class="cls-1" d="M101,35.23v3.48s-1.21,6.64-4.2,8.37l-.8.56v5.9L106,56,84,67.62V62.31a10,10,0,0,0-2.86-7L88,53.63V47.79l-1-.58a10,10,0,0,1-5-8.65V35.11a9.94,9.94,0,0,1,2.61-6.89,9.34,9.34,0,0,1,7.18-3A9.82,9.82,0,0,1,101,35.23Zm-37.42,31-8.49-2.8a22.53,22.53,0,0,0-12-.57L42,63.07V62.5a5.77,5.77,0,0,1,4.26-5.64L57,54.09v-6.3l-1-.58a10,10,0,0,1-5-8.65V35.08a9.92,9.92,0,0,1,2-6.21,9.43,9.43,0,0,1,7.75-3.61,9.82,9.82,0,0,1,9.21,10v3.48s-1.18,6.64-4.17,8.37l-.83.56v6.45l10.73,2.77A5.77,5.77,0,0,1,80,62.5v7.25l-.46.25H77.89L66.36,66.6A11.39,11.39,0,0,0,63.58,66.19ZM80.38,28.8q-.22.54-.42,1.08a14.06,14.06,0,0,0-1,5v3.83l5,11.11v1l-7.5,1.88L69,50.77V50a14,14,0,0,0,6-11.47V35.3c0-7.49-5.87-13.76-13.09-14A13.45,13.45,0,0,0,51.28,26,14,14,0,0,0,48,35.2v3.51l5,11.11v1l-7.5,1.88L38,50.77V50c0-.17,1.35-1.07,1.54-1.25A13.49,13.49,0,0,0,41,47.18a14.19,14.19,0,0,0,2.06-3.61,19.19,19.19,0,0,0,1-7.14c0-.57,0-1.14-.1-1.71a15.69,15.69,0,0,0-.27-1.67c-.12-.54-.26-1.07-.43-1.6s-.38-1-.61-1.54a13.55,13.55,0,0,0-.77-1.46A14.57,14.57,0,0,0,41,27.07a17,17,0,0,0-1.31-1.49c-.31-.31-.62-.6-1-.88l-1-.77-.14-.09a13.67,13.67,0,0,0-12.22-1.79,15,15,0,0,0-2.1.91,13.86,13.86,0,0,0-3,2.16A13.22,13.22,0,0,0,16,34.84v3.87a13.47,13.47,0,0,0,6,11.11v.47l-5.25,1.33L7.24,46H1V86.68L20,93h3.7l.46-1.62L30,94.87a6,6,0,0,0,5.79,5.82,6,6,0,0,0,5.78,5.79,6,6,0,0,0,5.79,5.78,6,6,0,0,0,6,5.81,6.1,6.1,0,0,0,3.39-1l1.7,1.5A5.84,5.84,0,0,0,62.27,120h.31a5.92,5.92,0,0,0,5.91-5.84,5.92,5.92,0,0,0,5.84-5.83,5.92,5.92,0,0,0,5.83-5.84,6,6,0,0,0,5.84-6,5.49,5.49,0,0,0,0-.58l35-17.52V50h-3.5l-6.69,3.39a10.08,10.08,0,0,0-2.39-.94l-8.42-2V49.5a13.36,13.36,0,0,0,6-11V35.1a13.64,13.64,0,0,0-1-5,14.06,14.06,0,0,0-2.63-4.25,14.26,14.26,0,0,0-3.92-3.07,13.85,13.85,0,0,0-4.86-1.52,13.35,13.35,0,0,0-7,1.24,15,15,0,0,0-3.5,2.23A10.61,10.61,0,0,0,80.38,28.8ZM26,53.58V47.64l-.8-.56c-3-1.73-4.2-8.37-4.2-8.37v-3.6a10,10,0,0,1,2.59-6.87,9.35,9.35,0,0,1,7.2-3,9.82,9.82,0,0,1,9.21,10v3.34a10,10,0,0,1-5,8.64l-1,.58v5.85l6.85,1.71a9.9,9.9,0,0,0-2.86,7v1.44l-6.24,1.39.16-.57.08-3.7L21.45,54.72ZM5,50H6.41l13.92,8.12-7,28.09L5,83.44ZM20.57,89l-3.81-1.27,6.83-27.29L28,63v.56L20.73,89ZM33.9,94.6a2.15,2.15,0,0,1,.64-1.53l3.4-3.4a2.17,2.17,0,0,1,3.71,1.53A2.23,2.23,0,0,1,41,92.74l-3.4,3.4a2.22,2.22,0,0,1-1.54.63A2.17,2.17,0,0,1,33.9,94.6Zm5.81,5.81a2.18,2.18,0,0,1,.63-1.53l3.41-3.41a2.17,2.17,0,0,1,3.07,3.07L43.41,102a2.17,2.17,0,0,1-3.7-1.54Zm5.81,5.81a2.22,2.22,0,0,1,.63-1.54l3.4-3.4a2.22,2.22,0,0,1,1.54-.63,2.17,2.17,0,0,1,2.17,2.17,2.15,2.15,0,0,1-.64,1.53l-3.4,3.4a2.15,2.15,0,0,1-1.53.64A2.17,2.17,0,0,1,45.52,106.22Zm8,8A2.17,2.17,0,0,1,51.32,112a2.15,2.15,0,0,1,.64-1.53l3.4-3.4a2.15,2.15,0,0,1,1.53-.64,2.17,2.17,0,0,1,2.17,2.17,2.22,2.22,0,0,1-.63,1.54l-3.4,3.4A2.22,2.22,0,0,1,53.49,114.19ZM62.76,116H62.5a2,2,0,0,1-1.34-.51l-1.45-1.27,1.46-1.46A5.92,5.92,0,0,0,62.39,111l1.76,1.46a2,2,0,0,1,.55,2.38A2.09,2.09,0,0,1,62.76,116ZM83.49,98.26a2.1,2.1,0,0,1-1.67.74H81.5a2.14,2.14,0,0,1-1.37-.5l-10.85-9-2.56,3.08,10.53,8.77a2.12,2.12,0,0,1,.41,2.78,2.06,2.06,0,0,1-1.77.91h-.43a2.05,2.05,0,0,1-1.3-.47L63.28,95.46l-2.56,3.08,10.53,8.77a2.1,2.1,0,0,1,.5,2.61A2.29,2.29,0,0,1,69.91,111a3.28,3.28,0,0,1-2.1-.76l-4.46-3.72A6.25,6.25,0,0,0,58,103a6.24,6.24,0,0,0-6-6,6.24,6.24,0,0,0-6-6,6.22,6.22,0,0,0-10.69-4.14l-3.46,3.46a5.28,5.28,0,0,0-.56.69l-6.15-3.69,5.39-18.85,13.5-3A20.57,20.57,0,0,1,54.74,66l2.95.94-10,5a6.68,6.68,0,0,0-3.7,6v.34a6.62,6.62,0,0,0,2,4.83,6.74,6.74,0,0,0,8.18,1l7.44-4.46a4.13,4.13,0,0,1,4.8.46l16.9,15.21A2.18,2.18,0,0,1,83.49,98.26Zm33.51-22L84.24,92.62c-.1-.12-.22-.22-.33-.33L67.48,77.51a7.85,7.85,0,0,0-8.17-1.46,7.48,7.48,0,0,0-1.09.56L51,81a2.61,2.61,0,0,1-4-2.31v-.33A2.63,2.63,0,0,1,48.44,76L59.3,70.55A8.47,8.47,0,0,1,65.36,70l12.22,3.49,3,.08L117,54.36Z" transform="translate(-1 -21.17)"/></svg>